<svg width="12" height="14" viewBox="0 0 12 14" fill="none" xmlns="http://www.w3.org/2000/svg">
<path d="M6 0C3.15971 0 0.857169 2.30254 0.857169 5.14286V8.2164L0.251075 8.82249C0.00593178 9.06763 -0.0673968 9.43629 0.0652718 9.75661C0.19794 10.0769 0.510489 10.2857 0.857169 10.2857H11.1429C11.4896 10.2857 11.8021 10.0769 11.9348 9.75661C12.0675 9.43629 11.9941 9.06763 11.749 8.82249L11.1429 8.2164V5.14286C11.1429 2.30254 8.84032 0 6 0Z" fill="url(#paint0_linear_613_719)"/>
<path d="M6.00002 13.7143C4.57986 13.7143 3.42859 12.5631 3.42859 11.1429H8.57145C8.57145 12.5631 7.42022 13.7143 6.00002 13.7143Z" fill="url(#paint1_linear_613_719)"/>
<defs>
<linearGradient id="paint0_linear_613_719" x1="1.10527" y1="0.676692" x2="9.23012" y2="11.5317" gradientUnits="userSpaceOnUse">
<stop stop-color="#3A416F"/>
<stop offset="1" stop-color="#141727"/>
</linearGradient>
<linearGradient id="paint1_linear_613_719" x1="3.90227" y1="11.3121" x2="5.45496" y2="14.8682" gradientUnits="userSpaceOnUse">
<stop stop-color="#3A416F"/>
<stop offset="1" stop-color="#141727"/>
</linearGradient>
</defs>
</svg>
