<svg width="14" height="14" viewBox="0 0 14 14" fill="none" xmlns="http://www.w3.org/2000/svg">
<g clip-path="url(#clip0_613_722)">
<path d="M11.375 2.18695H2.625C1.90013 2.18695 1.3125 2.77458 1.3125 3.49945V11.3744C1.3125 12.0993 1.90013 12.6869 2.625 12.6869H11.375C12.0999 12.6869 12.6875 12.0993 12.6875 11.3744V3.49945C12.6875 2.77458 12.0999 2.18695 11.375 2.18695Z" stroke="url(#paint0_linear_613_722)" stroke-width="1.5" stroke-linejoin="round"/>
<path d="M10.8779 2.18695H3.12211C2.12434 2.18695 1.3125 3.01136 1.3125 4.02445V5.68695H1.75C1.75 5.24945 2.1875 4.81195 2.625 4.81195H11.375C11.8125 4.81195 12.25 5.24945 12.25 5.68695H12.6875V4.02445C12.6875 3.01136 11.8757 2.18695 10.8779 2.18695Z" fill="url(#paint1_linear_613_722)"/>
<path d="M8.09369 6.99945C8.45613 6.99945 8.74994 6.70564 8.74994 6.3432C8.74994 5.98076 8.45613 5.68695 8.09369 5.68695C7.73125 5.68695 7.43744 5.98076 7.43744 6.3432C7.43744 6.70564 7.73125 6.99945 8.09369 6.99945Z" fill="url(#paint2_linear_613_722)"/>
<path d="M10.2812 6.99945C10.6436 6.99945 10.9374 6.70564 10.9374 6.3432C10.9374 5.98076 10.6436 5.68695 10.2812 5.68695C9.91875 5.68695 9.62494 5.98076 9.62494 6.3432C9.62494 6.70564 9.91875 6.99945 10.2812 6.99945Z" fill="url(#paint3_linear_613_722)"/>
<path d="M8.09369 9.18652C8.45613 9.18652 8.74994 8.89271 8.74994 8.53027C8.74994 8.16784 8.45613 7.87402 8.09369 7.87402C7.73125 7.87402 7.43744 8.16784 7.43744 8.53027C7.43744 8.89271 7.73125 9.18652 8.09369 9.18652Z" fill="url(#paint4_linear_613_722)"/>
<path d="M10.2812 9.18652C10.6436 9.18652 10.9374 8.89271 10.9374 8.53027C10.9374 8.16784 10.6436 7.87402 10.2812 7.87402C9.91875 7.87402 9.62494 8.16784 9.62494 8.53027C9.62494 8.89271 9.91875 9.18652 10.2812 9.18652Z" fill="url(#paint5_linear_613_722)"/>
<path d="M3.71875 9.18652C4.08119 9.18652 4.375 8.89271 4.375 8.53027C4.375 8.16784 4.08119 7.87402 3.71875 7.87402C3.35631 7.87402 3.0625 8.16784 3.0625 8.53027C3.0625 8.89271 3.35631 9.18652 3.71875 9.18652Z" fill="url(#paint6_linear_613_722)"/>
<path d="M5.90619 9.18652C6.26863 9.18652 6.56244 8.89271 6.56244 8.53027C6.56244 8.16784 6.26863 7.87402 5.90619 7.87402C5.54375 7.87402 5.24994 8.16784 5.24994 8.53027C5.24994 8.89271 5.54375 9.18652 5.90619 9.18652Z" fill="url(#paint7_linear_613_722)"/>
<path d="M3.71875 11.3745C4.08119 11.3745 4.375 11.0806 4.375 10.7182C4.375 10.3558 4.08119 10.062 3.71875 10.062C3.35631 10.062 3.0625 10.3558 3.0625 10.7182C3.0625 11.0806 3.35631 11.3745 3.71875 11.3745Z" fill="url(#paint8_linear_613_722)"/>
<path d="M5.90619 11.3745C6.26863 11.3745 6.56244 11.0806 6.56244 10.7182C6.56244 10.3558 6.26863 10.062 5.90619 10.062C5.54375 10.062 5.24994 10.3558 5.24994 10.7182C5.24994 11.0806 5.54375 11.3745 5.90619 11.3745Z" fill="url(#paint9_linear_613_722)"/>
<path d="M8.09369 11.3745C8.45613 11.3745 8.74994 11.0806 8.74994 10.7182C8.74994 10.3558 8.45613 10.062 8.09369 10.062C7.73125 10.062 7.43744 10.3558 7.43744 10.7182C7.43744 11.0806 7.73125 11.3745 8.09369 11.3745Z" fill="url(#paint10_linear_613_722)"/>
<path d="M3.49988 1.31189V2.18689" stroke="url(#paint11_linear_613_722)" stroke-width="1.5" stroke-linecap="round" stroke-linejoin="round"/>
<path d="M10.4999 1.31189V2.18689" stroke="url(#paint12_linear_613_722)" stroke-width="1.5" stroke-linecap="round" stroke-linejoin="round"/>
</g>
<defs>
<linearGradient id="paint0_linear_613_722" x1="2.3602" y1="2.87774" x2="10.8077" y2="13.3577" gradientUnits="userSpaceOnUse">
<stop stop-color="#3A416F"/>
<stop offset="1" stop-color="#141727"/>
</linearGradient>
<linearGradient id="paint1_linear_613_722" x1="2.3602" y1="2.41721" x2="3.80441" y2="7.79224" gradientUnits="userSpaceOnUse">
<stop stop-color="#3A416F"/>
<stop offset="1" stop-color="#141727"/>
</linearGradient>
<linearGradient id="paint2_linear_613_722" x1="7.55833" y1="5.7733" x2="8.62905" y2="6.99945" gradientUnits="userSpaceOnUse">
<stop stop-color="#3A416F"/>
<stop offset="1" stop-color="#141727"/>
</linearGradient>
<linearGradient id="paint3_linear_613_722" x1="9.74583" y1="5.7733" x2="10.8166" y2="6.99945" gradientUnits="userSpaceOnUse">
<stop stop-color="#3A416F"/>
<stop offset="1" stop-color="#141727"/>
</linearGradient>
<linearGradient id="paint4_linear_613_722" x1="7.55833" y1="7.96037" x2="8.62905" y2="9.18652" gradientUnits="userSpaceOnUse">
<stop stop-color="#3A416F"/>
<stop offset="1" stop-color="#141727"/>
</linearGradient>
<linearGradient id="paint5_linear_613_722" x1="9.74583" y1="7.96037" x2="10.8166" y2="9.18652" gradientUnits="userSpaceOnUse">
<stop stop-color="#3A416F"/>
<stop offset="1" stop-color="#141727"/>
</linearGradient>
<linearGradient id="paint6_linear_613_722" x1="3.18339" y1="7.96037" x2="4.25411" y2="9.18652" gradientUnits="userSpaceOnUse">
<stop stop-color="#3A416F"/>
<stop offset="1" stop-color="#141727"/>
</linearGradient>
<linearGradient id="paint7_linear_613_722" x1="5.37083" y1="7.96037" x2="6.44155" y2="9.18652" gradientUnits="userSpaceOnUse">
<stop stop-color="#3A416F"/>
<stop offset="1" stop-color="#141727"/>
</linearGradient>
<linearGradient id="paint8_linear_613_722" x1="3.18339" y1="10.1483" x2="4.25411" y2="11.3745" gradientUnits="userSpaceOnUse">
<stop stop-color="#3A416F"/>
<stop offset="1" stop-color="#141727"/>
</linearGradient>
<linearGradient id="paint9_linear_613_722" x1="5.37083" y1="10.1483" x2="6.44155" y2="11.3745" gradientUnits="userSpaceOnUse">
<stop stop-color="#3A416F"/>
<stop offset="1" stop-color="#141727"/>
</linearGradient>
<linearGradient id="paint10_linear_613_722" x1="7.55833" y1="10.1483" x2="8.62905" y2="11.3745" gradientUnits="userSpaceOnUse">
<stop stop-color="#3A416F"/>
<stop offset="1" stop-color="#141727"/>
</linearGradient>
<linearGradient id="paint11_linear_613_722" x1="3.59198" y1="1.36946" x2="4.28705" y2="2.27913" gradientUnits="userSpaceOnUse">
<stop stop-color="#3A416F"/>
<stop offset="1" stop-color="#141727"/>
</linearGradient>
<linearGradient id="paint12_linear_613_722" x1="10.592" y1="1.36946" x2="11.2871" y2="2.27913" gradientUnits="userSpaceOnUse">
<stop stop-color="#3A416F"/>
<stop offset="1" stop-color="#141727"/>
</linearGradient>
<clipPath id="clip0_613_722">
<rect width="14" height="14" fill="white"/>
</clipPath>
</defs>
</svg>
